<?xml version="1.0" encoding="UTF-8" standalone="no"?>
<!-- Created with Inkscape (http://www.inkscape.org/) -->

<svg
   width="85mm"
   height="85mm"
   viewBox="0 0 85 85.000001"
   version="1.1"
   id="svg1"
   inkscape:version="1.3.2 (091e20e, 2023-11-25, custom)"
   sodipodi:docname="default.svg"
   xmlns:inkscape="http://www.inkscape.org/namespaces/inkscape"
   xmlns:sodipodi="http://sodipodi.sourceforge.net/DTD/sodipodi-0.dtd"
   xmlns="http://www.w3.org/2000/svg"
   xmlns:svg="http://www.w3.org/2000/svg">
  <sodipodi:namedview
     id="namedview1"
     pagecolor="#505050"
     bordercolor="#eeeeee"
     borderopacity="1"
     inkscape:showpageshadow="0"
     inkscape:pageopacity="0"
     inkscape:pagecheckerboard="0"
     inkscape:deskcolor="#d1d1d1"
     inkscape:document-units="mm"
     inkscape:zoom="0.76702441"
     inkscape:cx="8.4743066"
     inkscape:cy="17.600483"
     inkscape:window-width="1846"
     inkscape:window-height="1057"
     inkscape:window-x="1986"
     inkscape:window-y="373"
     inkscape:window-maximized="1"
     inkscape:current-layer="layer1" />
  <defs
     id="defs1" />
  <g
     inkscape:label="Layer 1"
     inkscape:groupmode="layer"
     id="layer1"
     transform="translate(-102.65833,-88.635417)">
    <path
       id="path573"
       style="font-style:normal;font-weight:400;font-size:29.1042px;font-family:'MS Shell Dlg 2';fill:none;stroke:#000000;stroke-width:0.7;stroke-linecap:round;stroke-linejoin:bevel;stroke-opacity:1"
       d="m 163.16913,121.41891 0.003,0.0539 m -2e-4,1e-5 0.067,0.21093 m 0,0 0.1524,0.19555 m 0,0 0.2291,0.1688 m 0,0 0.2923,0.13225 m 0,0 0.3387,0.088 m 0,1e-5 0.3654,0.0387 m 0,-5e-5 0.3707,-0.0129 m 0,-4e-5 0.3546,-0.0638 m 0,0 0.3179,-0.11094 m 0,0 0.2626,-0.15163 m 0,0 0.1922,-0.18352 m 0,0 0.1105,-0.20473 m 0,0 0.0252,-0.16014 m -1.4412,-1.20069 -0.0267,-0.0121 m 0,0 -0.0309,-0.008 m 0,-1e-4 -0.0334,-0.004 m 0,5e-4 -0.0339,0.001 m 0,2e-4 -0.0323,0.006 m 0,-2e-4 -0.0291,0.0101 m 0,0 -0.024,0.0139 m 0,0 -0.0175,0.0168 m 0,0 -0.0101,0.0187 m 0,0 -0.002,0.0195 m 0,0 0.006,0.0193 m 10e-5,0 0.0139,0.0178 m 0,0 0.0209,0.0154 m 0,0 0.0267,0.0121 m 0,0 0.0309,0.008 m 0,1e-4 0.0334,0.003 m 0,5e-4 0.0339,-10e-4 m 0,-2e-4 0.0323,-0.006 m 0,2e-4 0.0291,-0.0102 m 0,0 0.024,-0.0138 m 0,0 0.0175,-0.0168 m 0,0 0.0101,-0.0187 m 0,0 0.002,-0.0195 m 0,0 -0.006,-0.0193 m -1e-4,0 -0.0139,-0.0178 m 0,0 -0.0209,-0.0154 m 1.3863,0.6284 -0.0802,-0.0362 m -2.8138,0.004 -0.2459,0.142 m 0,0 -0.262,0.25027 m 0,0 -0.1507,0.27922 m 0,0 -0.0306,0.29192 m 0,0 0.0913,0.28768 m 0,0 0.2079,0.26669 m 0,0 0.3124,0.23022 m 0,0 0.3987,0.18037 m 0,0 0.462,0.12003 m 0,0 0.4982,0.0527 m 0,2e-5 0.5057,-0.0177 m 0,4e-5 0.4836,-0.087 m 0,-10e-6 0.4335,-0.1513 m 0,0 0.3582,-0.2068 m 0,0 0.262,-0.25029 m 0,0 0.1508,-0.27922 m 0,0 0.0305,-0.29192 m 0,0 -0.0913,-0.28768 m 0,0 -0.2079,-0.26674 m 0,0 -0.3124,-0.2302 m -4.2871,1.42905 0.005,0.098 m 1e-4,1e-5 0.1218,0.38351 m 0,0 0.2771,0.35554 m 0,0 0.4165,0.30691 m 0,0 0.5316,0.24046 m 0,0 0.6158,0.16001 m 0,0 0.6643,0.0703 m 0,-2e-5 0.674,-0.0235 m 0,-4e-5 0.6448,-0.11599 m 0,0 0.5779,-0.20171 m 0,0 0.4775,-0.27569 m 0,0 0.3494,-0.33366 m 0,0 0.2009,-0.37224 m 0,0 0.0459,-0.29117 m -63.5594,11.21626 v -17.71793 m 52.4673,48.01 v -17.718 m 2.9698,17.718 v -17.718 m 26.9761,2.1433 v -17.71799 m -48.2312,-15.73191 0.002,0.0293 m -4.7e-4,0 0.0364,0.1146 m -1e-5,0 0.0829,0.1063 m -5e-5,0 0.12451,0.0917 m 0,0 0.15891,0.0719 m 0,0 0.18409,0.0478 m 0,0 0.19857,0.0211 m 0,0 0.20151,-0.007 m 0,-1e-4 0.19274,-0.0347 m 0,0 0.17276,-0.0603 m 0,0 0.14275,-0.0824 m 0,0 0.10444,-0.0997 m 0,0 0.0601,-0.1113 m -4e-5,0 0.0137,-0.087 m -15.43911,-8.3168 0.01,0.1835 m -4e-4,0 0.228,0.7183 m 0,0 0.5191,0.6659 m 0,0 0.78,0.5749 m 0,0 0.9957,0.4504 m 0,0 1.1534,0.2997 m 0,0 1.2441,0.1316 m 0,0 1.2625,-0.0441 m 0,0 1.2076,-0.2173 m 0,0 1.0824,-0.3777 m 0,0 0.8944,-0.5164 m 0,0 0.6543,-0.6249 m 0,0 0.3763,-0.6972 m 0,0 0.086,-0.5454 m 4.15598,7.6591 -0.0128,-0.006 m 1e-5,3e-4 -0.0148,-0.004 m -2e-5,10e-5 -0.016,-0.002 m 2e-5,3e-4 -0.0162,6e-4 m -3e-5,0 -0.0155,0.003 m -1e-5,-2e-4 -0.0139,0.005 m -10e-6,-2e-4 -0.0115,0.007 m 1e-5,-3e-4 -0.008,0.008 m -4.1e-4,0 -0.005,0.009 m 1.7e-4,-1e-4 -9.8e-4,0.009 m 0,4e-4 0.003,0.009 m -7e-5,2e-4 0.007,0.009 m -3.3e-4,-4e-4 0.01,0.007 m 2e-5,4e-4 0.0128,0.006 m -1e-5,-2e-4 0.0148,0.004 m 2e-5,-2e-4 0.016,0.002 m -1e-5,-3e-4 0.0162,-6e-4 m 2e-5,0 0.0155,-0.003 m 1e-5,2e-4 0.0139,-0.005 m 1e-5,2e-4 0.0115,-0.007 m -1e-5,4e-4 0.008,-0.008 m 4.1e-4,-1e-4 0.005,-0.009 m -1.7e-4,1e-4 9.8e-4,-0.009 m 0,-4e-4 -0.003,-0.009 m 7e-5,-2e-4 -0.007,-0.009 m 3.4e-4,4e-4 -0.01,-0.007 m -7.17771,-10.6594 -0.5971,-0.2701 m 0,0 -0.6918,-0.1798 m 0,0 -0.7461,-0.0789 m 0,0 -0.7572,0.0264 m 0,0 -0.7242,0.1303 m 0,0 -0.6492,0.2266 m 0,0 -0.5364,0.3097 m 0,0 -0.3925,0.3748 m 0,0 -0.2256,0.4181 m 0,0 -0.0458,0.4372 m 0,0 0.1367,0.4308 m 0,0 0.3113,0.3994 m 0,0 0.4679,0.3447 m 0,0 0.5971,0.2701 m 0,0 0.6917,0.1798 m 0,0 0.7462,0.0789 m 0,0 0.7572,-0.0264 m 0,0 0.7242,-0.1303 m 0,0 0.6492,-0.2266 m 0,0 0.5364,-0.3097 m 0,0 0.3925,-0.3748 m 0,0 0.2256,-0.4181 m 0,0 0.0458,-0.4372 m 0,0 -0.1367,-0.4308 m 0,0 -0.3113,-0.3994 m 0,0 -0.4679,-0.3447 m 28.1013,20.25777 v 0.71705 m 0,-0.71705 v -2.14069 m -6.30439,2.13988 v 0.71705 m 0,-0.71705 v -2.14068 m -19.87841,-17.57538 -0.1996,-0.1787 m 0.1996,0.1787 0.5908,0.7186 m -0.7904,-0.8973 -0.6689,-0.4662 m 1.4593,1.3635 0.118,0.2021 m 0,0 0.1767,0.3825 m 0,0 0.0959,0.2859 m 0,0 0.1046,0.5406 m 0,0 0.0172,0.3293 m -10.4691,-0.3909 0.0966,-0.4759 m -0.0966,0.4759 -0.0243,0.3896 m 0.6035,-1.8766 -0.0909,0.1371 m 0.0909,-0.1371 0.1176,-0.1596 m -0.5711,1.0738 0.1754,-0.4397 m 0,0 0.1872,-0.3374 m 0.9085,-0.9928 -0.1192,0.0967 m 0.1192,-0.0967 0.103,-0.0782 m -0.803,0.7743 0.2469,-0.286 m 0,0 0.3339,-0.3134 m 0.2222,-0.1749 0.3452,-0.2313 m 0,0 0.5711,-0.301 m 0,0 0.1792,-0.0773 m 0,0 0.8076,-0.2685 m 0.8223,-0.1609 -0.8223,0.1609 m 0.8223,-0.1609 0.2091,-0.0252 m 0,0 0.2389,-0.0213 m 0,0 0.8125,-0.0155 m 0,0 0.8677,0.0813 m 0,0 0.1769,0.0295 m 0,0 1.0121,0.2639 m 0.955,0.4342 -0.1241,-0.0565 m -8.2767,2.2936 0.0291,-0.0969 m 14.94474,8.6231 0.0558,0.0427 m -0.0558,-0.0427 -0.0604,-0.0384 m 0.22746,0.1941 0.0547,0.0764 m -0.0547,-0.0764 -0.0579,-0.0643 m -0.0534,-0.0487 0.0534,0.0487 m 0.16561,0.2398 0.0392,0.1075 m -0.0392,-0.1075 -0.053,-0.0991 m 0.0922,0.2066 0.011,0.043 m -5e-5,0 0.0132,0.0753 m -1e-5,0 0.006,0.0991 m -1.4884,-0.5112 0.10615,-0.1054 m -0.10615,0.1054 -0.0632,0.0866 m 0.28137,-0.2697 0.10571,-0.0516 m -0.10571,0.0516 -0.11202,0.0777 m 0.38231,-0.1774 -0.0755,0.0177 m 0.0755,-0.0177 0.0276,-0.005 m -0.67206,0.5821 -0.0248,0.1246 m 0.0248,-0.1246 0.0436,-0.1174 m -0.0684,0.242 -0.005,0.0921 m 0.0735,-0.3341 0.0294,-0.0573 m 4e-5,0 0.0198,-0.033 m 0.47607,-0.3517 -0.0655,0.0213 m -0.0236,0.009 0.0235,-0.009 m 0.16868,-0.0438 0.1372,-0.0103 m 0,0 0.0427,0.001 m -5e-5,1e-4 0.20359,0.0345 m 0.18436,0.0789 -0.18436,-0.0789 m -4.35662,-2.4044 v 1.7209 m 0,-1.7209 v -5.1377 m -10.4934,1.7196 v 5.1376 m 0,-5.1376 v -1.7209 m 15.43913,11.2709 v 0.9895 m 0,-0.9895 v -2.9541 m -1.67483,0.9893 v 2.9541 m 0,-2.9541 v -0.9895 m 21.4574,13.08468 v 1.14727 m 0,-1.14727 v -2.60824 m -5.60177,0.3297 v 3.4251 m 0,-3.4251 v -0.3379 m 32.99067,13.26534 v -8.85899 m 0,8.85899 v 8.85902 m -83.6434,-23.57638 v -8.85902 m 0,8.85902 v 8.85899 m 64.1745,-10.28724 v 0.21407 m 0,-0.21407 v -0.0717 m -5.6026,0.21335 v 0.0717 m 0,-0.0717 v -0.21407 m 5.0831,-1.13341 -0.1004,-0.0898 m 0.1004,0.0898 0.2851,0.34587 m -0.3855,-0.43571 -0.3456,-0.2404 m 0.7311,0.67611 0.0272,0.0447 m 0,-2e-5 0.0281,0.0499 m 0,10e-6 0.0814,0.17637 m 0.0431,0.12838 0.0469,0.24231 m -0.0469,-0.24231 -0.0431,-0.12838 m 0.09,0.37069 0.008,0.14661 m -5.5921,-0.17375 0.0434,-0.2135 m -0.0434,0.2135 -0.0108,0.17303 m 0.2767,-0.85132 0.0564,-0.0766 m -0.0564,0.0766 -0.0422,0.0635 m 0,5e-5 -0.0875,0.15767 m -0.0742,0.20203 0.0742,-0.20203 m 0.5319,-0.64095 -0.0595,0.0482 m 0.0595,-0.0482 0.0531,-0.0403 m -0.3989,0.3834 0.2863,-0.2949 m 0.1126,-0.0885 0.2302,-0.1504 m 0,0 0.2547,-0.1306 m 0,0 0.3337,-0.1168 m 2.5077,-0.005 0.0608,0.0158 m 0.518,0.2351 -0.518,-0.2351 m -4.0649,1.31222 0.0186,-0.0415 m 3.6389,-1.62822 -0.1109,-0.0706 m 0.1109,0.0706 0.1023,0.0782 m 0,0 0.0979,0.0894 m 0,0 0.106,0.1176 m 0,0 0.1,0.1399 m 0,0 0.0965,0.1798 m 0.0722,0.1977 0.02,0.0785 m -0.02,-0.0785 -0.0722,-0.1977 m 0.0922,0.2762 0.0241,0.13749 m 0,0 0.0113,0.1809 m -3.0035,-0.46859 -0.0227,0.0725 m 0.0227,-0.0725 0.057,-0.1419 m 1.1043,-0.843 -0.1396,0.0327 m 0.1396,-0.0327 0.0511,-0.009 m -1.2351,1.0664 -0.0454,0.22759 m 0,0 -0.01,0.1681 m 0.1351,-0.61009 0.0899,-0.1651 m 0,0 0.2664,-0.314 m 0.1007,-0.0821 0.3433,-0.193 m 0,0 0.0434,-0.0168 m 0,0 0.121,-0.0393 m 0.1907,-0.0414 0.2542,-0.0192 m 0,0 0.0791,0.002 m 0,0 0.3768,0.0639 m 0.3398,0.1454 -0.3398,-0.1454 m -1.5092,0.3259 0.1007,-0.0821 m 2.4895,1.38576 v -0.21407 m 0,0.21407 v 0.0717 m -3.0814,-0.21446 v 0.21407 m 0,-0.21407 v -0.0717 m 3.0814,0.28616 -0.0252,0.16015 m 0,0 -0.1105,0.20473 m 0,0 -0.1922,0.18351 m 0,0 -0.2626,0.15163 m 0,0 -0.3179,0.11094 m 0,0 -0.3546,0.0638 m 0,0 -0.3707,0.0129 m 0,5e-5 -0.3654,-0.0387 m 0,4e-5 -0.3387,-0.088 m 0,-1e-5 -0.2923,-0.13225 m 0,0 -0.2291,-0.1688 m 0,0 -0.1524,-0.19555 m 0,0 -0.067,-0.21093 m 0,0 -0.003,-0.0539 m -1.2604,0.85716 0.005,0.098 m 1e-4,10e-6 0.1218,0.3835 m 0,0 0.2771,0.35554 m 0,0 0.4165,0.30692 m 0,0 0.5316,0.24045 m 0,0 0.6158,0.16002 m 0,0 0.6643,0.0703 m 0,-2e-5 0.674,-0.0235 m 0,-4e-5 0.6448,-0.116 m 0,0 0.5779,-0.2017 m 0,0 0.4775,-0.2757 m 0,0 0.3494,-0.33366 m 0,0 0.2009,-0.37224 m 0,0 0.0459,-0.29117 m -63.5594,-8.50214 26.9761,-15.5747 m -26.9761,15.5747 -0.2932,0.2123 m 0,0 -0.2041,0.2446 m 0,0 -0.1046,0.2647 m 0,0 -0.0132,0.1357 m 0,0 0.0132,0.1358 m 0,0 0.1046,0.2647 m 0,0 0.2041,0.2446 m 0,0 0.2932,0.2123 m 26.9761,-17.2894 0.3676,-0.1692 m 0,0 0.4237,-0.1178 m 0,0 0.4585,-0.0604 m 0,0 h 0.4702 m 0,0 0.4585,0.0604 m 0,0 0.4237,0.1178 m 0,0 0.3676,0.1692 m 22.5214,47.5814 -52.4673,-30.292 m 29.9459,-17.2894 52.4673,30.29207 m -29.9459,17.28933 0.3676,0.1693 m 0,0 0.4237,0.1178 m 0,0 0.4585,0.0604 m 0,0 h 0.4702 m 0,0 0.4585,-0.0604 m 0,0 0.4237,-0.1178 m 0,0 0.3676,-0.1693 m 26.9761,-17.28933 0.2932,0.21226 m 0,0 0.2041,0.24462 m 0,0 0.1046,0.26469 m 0,0 0.0132,0.13575 m 0,0 -0.0132,0.13575 m 0,0 -0.1046,0.26469 m 0,0 -0.2041,0.24461 m 0,0 -0.2932,0.21227 m 0,0 -26.9761,15.57469 m -5.39947,-17.07536 0.005,0.098 m 1.1e-4,-1e-5 0.12171,0.38345 m 0,0 0.27712,0.3555 m 0,0 0.41642,0.30687 m 0,0 0.53151,0.24042 m 0,0 0.6157,0.15999 m 0,0 0.6642,0.0703 m 0,-3e-5 0.674,-0.0235 m 0,-4e-5 0.6446,-0.11597 m 0,0 0.5779,-0.20168 m 0,0 0.4774,-0.27566 m 0,0 0.3493,-0.33361 m 0,0 0.2009,-0.37219 m 0,0 0.0459,-0.29113 m -21.4574,-10.28835 0.002,0.0293 m -4.7e-4,0 0.0364,0.1147 m -1e-5,0 0.0829,0.1063 m -5e-5,0 0.12451,0.0917 m 0,0 0.15891,0.0719 m 0,0 0.18409,0.0478 m 0,0 0.19857,0.021 m 0,0 0.20151,-0.007 m 0,0 0.19274,-0.0347 m 0,0 0.17276,-0.0603 m 0,0 0.14275,-0.0824 m 0,0 0.10444,-0.0997 m 0,0 0.0601,-0.1113 m -4e-5,0 0.0137,-0.0871 m -15.43911,-5.4019 0.01,0.1836 m -4e-4,0 0.228,0.7183 m 0,0 0.5191,0.6659 m 0,0 0.78,0.5749 m 0,0 0.9957,0.4503 m 0,0 1.1534,0.2997 m 0,0 1.2441,0.1317 m 0,0 1.2625,-0.0441 m 0,0 1.2076,-0.2173 m 0,0 1.0824,-0.3778 m 0,0 0.8944,-0.5163 m 0,0 0.6543,-0.625 m 0,0 0.3763,-0.6972 m 0,0 0.086,-0.5453 m -31.5262,19.33191 0.0132,0.13575 m 0,0 0.1046,0.26469 m 0,0 0.2041,0.24462 m 0,0 0.2932,0.21226 m 52.4673,30.29207 -52.4673,-30.29207 m 16.377,4.13993 -0.0911,-0.91936 m 0,0 -0.2681,-0.97117 m 0,0 -0.4296,-0.96654 m 0,0 -0.5659,-0.90574 m 0,0 -0.6696,-0.79229 m 0,0 -0.7341,-0.63282 m 0,0 -0.7561,-0.43655 m 0,0 -0.7342,-0.21492 m 0,0 -0.6695,0.0192 m 0,1e-5 -0.4356,0.1676 m 0,0 -0.1304,0.0846 m 0,1e-5 -0.4295,0.47056 m 0,0 -0.2681,0.66156 m 0,0 -0.0912,0.81412 m 0,0 0.0912,0.91935 m 0,0 0.2681,0.97117 m 0,0 0.4295,0.96654 m 0,0 0.566,0.90574 m 0,0 0.6695,0.79229 m 0,0 0.7342,0.63282 m 0,0 0.7561,0.43655 m 0,0 0.7341,0.21492 m 0,0 0.6696,-0.0192 m 0,-1e-5 0.4356,-0.1676 m 0,0 0.1303,-0.0846 m 0,-1e-5 0.4296,-0.47056 m 0,0 0.2681,-0.66156 m 0,0 0.0911,-0.81411 m 36.0903,26.15214 0.3676,0.1692 m 0,0 0.4237,0.1178 m 0,0 0.4585,0.0604 m 0,0 h 0.4702 m 0,0 0.4585,-0.0604 m 0,0 0.4237,-0.1178 m 0,0 0.3676,-0.1692 m 27.5912,-16.432 -0.0132,0.1357 m 0,0 -0.1046,0.2647 m 0,0 -0.2041,0.2446 m 0,0 -0.2932,0.2123 m 0,0 -26.9761,15.5747 m -43.8543,-31.97588 -0.1543,0.16907 m 0,0 -0.2681,0.66156 m 0,0 -0.0912,0.81412 m 0,0 0.0912,0.91935 m 0,0 0.2681,0.97117 m 0,0 0.4295,0.96654 m 0,0 0.566,0.90574 m 0,0 0.6695,0.7923 m 0,0 0.7342,0.63281 m 0,0 0.7561,0.43655 m 0,0 0.7341,0.21492 m 0,0 0.5455,-0.0157 m 33.82291,-14.85834 0.006,0.11029 m -2.5e-4,0 0.13698,0.43155 m 0,0 0.31187,0.40008 m 0,0 0.46866,0.34537 m 0,0 0.59823,0.27057 m 0,0 0.6929,0.18006 m 0,0 0.7475,0.0791 m 0,-1e-5 0.7585,-0.0265 m 0,1e-5 0.7255,-0.13053 m 0,0 0.6503,-0.22697 m 0,0 0.5374,-0.31023 m 0,0 0.3931,-0.37546 m 0,0 0.2261,-0.41887 m 0,0 0.0516,-0.32765 m -0.9233,-4.14502 -0.5981,-0.2706 m 0,0 -0.693,-0.18 m 0,0 -0.7475,-0.0791 m 0,0 -0.7585,0.0265 m 0,0 -0.7255,0.1305 m 0,0 -0.65031,0.227 m 0,0 -0.53734,0.3102 m 0,0 -0.39313,0.3755 m 0,0 -0.22608,0.41883 m 0,0 -0.0516,0.32765 m -3e-5,0 0.006,0.11028 m -2.5e-4,0 0.13698,0.43155 m 0,0 0.31187,0.40008 m 0,0 0.46866,0.34537 m 0,0 0.59823,0.27057 m 0,0 0.6929,0.18007 m 0,0 0.7475,0.0791 m 0,-2e-5 0.7585,-0.0265 m 0,1e-5 0.7255,-0.13053 m 0,0 0.6503,-0.22697 m 0,0 0.5374,-0.31023 m 0,0 0.3931,-0.37546 m 0,0 0.2261,-0.41887 m 0,0 0.0516,-0.32765 m 0,0 -0.006,-0.11029 m 3e-4,0 -0.137,-0.43159 m 0,0 -0.3119,-0.4 m 0,0 -0.4687,-0.3454" />
  </g>
</svg>
