<?xml version="1.0" encoding="UTF-8" standalone="no"?>
<!-- Created with Inkscape (http://www.inkscape.org/) -->

<svg
   width="80mm"
   height="80mm"
   viewBox="0 0 80 80.000001"
   version="1.1"
   id="svg1"
   inkscape:version="1.3.2 (091e20e, 2023-11-25, custom)"
   sodipodi:docname="left.svg"
   xmlns:inkscape="http://www.inkscape.org/namespaces/inkscape"
   xmlns:sodipodi="http://sodipodi.sourceforge.net/DTD/sodipodi-0.dtd"
   xmlns="http://www.w3.org/2000/svg"
   xmlns:svg="http://www.w3.org/2000/svg">
  <sodipodi:namedview
     id="namedview1"
     pagecolor="#505050"
     bordercolor="#eeeeee"
     borderopacity="1"
     inkscape:showpageshadow="0"
     inkscape:pageopacity="0"
     inkscape:pagecheckerboard="0"
     inkscape:deskcolor="#d1d1d1"
     inkscape:document-units="mm"
     inkscape:zoom="0.76702441"
     inkscape:cx="-18.904222"
     inkscape:cy="189.69409"
     inkscape:window-width="1846"
     inkscape:window-height="1057"
     inkscape:window-x="1986"
     inkscape:window-y="373"
     inkscape:window-maximized="1"
     inkscape:current-layer="layer1" />
  <defs
     id="defs1" />
  <g
     inkscape:label="Layer 1"
     inkscape:groupmode="layer"
     id="layer1"
     transform="translate(-110.06667,-98.425002)">
    <path
       id="path1463"
       style="font-style:normal;font-weight:400;font-size:29.1042px;font-family:'MS Shell Dlg 2';fill:none;stroke:#000000;stroke-width:0.7;stroke-linecap:round;stroke-linejoin:bevel;stroke-opacity:1"
       d="m 162.70097,131.42501 h 0.0112 m 0,0 h 0.0889 m 0,0 h 0.1726 m 0,0 h 0.2463 m 0,0 h 0.3057 m 0,0 h 0.1901 m -2.2754,1.04999 h 0.0205 m 0,0 h 0.1616 m 0,0 h 0.3138 m 0,0 0.4478,1e-5 m 0,0 h 0.5558 m 0,0 h 0.6314 m 0,0 h 0.1445 m -50.7491,22.04999 v -21.70004 m 74.2,21.70004 v -21.69997 m -46.6874,-4.83003 h 0.006 m 1.1e-4,0 h 0.0483 m 1e-5,0 h 0.0938 m 2e-5,0 h 0.13387 m 0,0 h 0.16614 m 0,0 h 0.18876 m 0,0 h 0.20041 m 0,0 h 0.2004 m 0,0 h 0.18876 m 0,0 h 0.16614 m 0,0 h 0.13387 m 0,0 h 0.0938 m 2e-5,0 h 0.0483 m 1e-5,0 h 0.006 m -19.31402,-3.57 h 0.0383 m 0,0 h 0.3027 m 0,0 h 0.5878 m 0,0 h 0.8387 m 0,0 h 1.041 m 0,0 h 1.1826 m 0,0 h 1.2556 m 0,0 h 1.2556 m 0,0 h 1.1827 m 0,0 h 1.0409 m 0,0 h 0.8388 m 0,0 h 0.5878 m 0,0 h 0.3026 m 0,0 h 0.0383 m 36.3355,1.05 v 1.75 m 0,-1.75 v -1.75 m -6.3044,1.75 v 1.75 m 0,-1.75 v -1.75 m -31.5124,-1.3059 0.2925,0.1138 m -0.2925,-0.1138 -0.1514,-0.0415 m 0,0 -0.4902,-0.0526 m 0.9341,0.2079 0.1691,0.0918 m 0,0 0.229,0.1584 m 0.1563,0.1383 0.1762,0.1942 m -0.1762,-0.1942 -0.1563,-0.1383 m 0.3325,0.3325 0.1272,0.178 m 0,0 0.123,0.2202 m 0,0 0.087,0.2088 m 0,0 0.0683,0.2351 m 0,0 0.0392,0.2292 m 0,0 0.0135,0.2381 m -8.8607,-2.0474 0.4903,-0.0526 m -0.4903,0.0526 -0.1513,0.0415 m 0,0 -0.2925,0.1138 m -0.1691,0.0918 -0.2291,0.1584 m 0.2291,-0.1584 0.1691,-0.0918 m -0.3982,0.2502 -0.1563,0.1383 m 0,0 -0.1762,0.1942 m -0.1272,0.178 -0.123,0.2202 m 0.123,-0.2202 0.1272,-0.178 m -0.3372,0.607 -0.0683,0.2351 m 0.0683,-0.2351 0.087,-0.2088 m -0.1944,0.6731 -0.0136,0.2381 m 0.0136,-0.2381 0.0391,-0.2292 m 8.7816,-1.5801 -0.4638,-0.0526 m 10.34497,4.9193 -0.17183,-0.0193 m 0.17183,0.0193 0.0561,0.0152 m 0.10665,0.0417 0.0622,0.0337 m -0.0622,-0.0337 -0.10666,-0.0417 m 0.31,0.1842 0.0646,0.0712 m -0.0646,-0.0712 -0.0573,-0.0507 m -5e-5,0 -0.0838,-0.0581 m 0.20573,0.18 0.0466,0.0653 m 4e-5,0 0.0451,0.0807 m -1e-5,0 0.0319,0.0766 m 0,0 0.0251,0.0861 m -5e-5,0 0.016,0.0996 m -5e-5,0 0.003,0.0718 m -1.07581,-0.7507 0.17184,-0.0193 m -0.17184,0.0193 -0.0561,0.0152 m 1e-5,0 -0.10666,0.0417 m 0,0 -0.0621,0.0337 m -4e-5,0 -0.0838,0.0581 m -0.0574,0.0507 -0.0646,0.0712 m 0.0646,-0.0712 0.0573,-0.0507 m -0.16852,0.1872 -0.0451,0.0807 m 0.0451,-0.0807 0.0466,-0.0653 m -0.0917,0.146 -0.0319,0.0766 m 1e-5,0 -0.0251,0.0861 m 4e-5,0 -0.016,0.0996 m 5e-5,0 -0.003,0.0718 m 0.60193,-0.7507 0.16821,-0.0193 m -7.9164,1.39998 v 4.2 m 0,-4.2 V 124.425 m -10.4934,4.19997 v 4.2 m 0,-4.2 V 124.425 m 19.31412,5.98499 v 2.415 m 0,-2.415 1e-5,-2.41499 m -1.67483,2.41498 v 2.415 m 0,-2.415 V 127.995 m 28.8383,2.03001 v 2.8 m 0,-2.8 V 127.225 m -5.6018,2.80001 v 2.8 m 0,-2.8 V 127.225 m -2.2754,5.425 v 0.175 m 0,-0.175 v -0.175 m 0.4946,-0.66863 -0.0983,0.038 m 0.0983,-0.038 0.0497,-0.0138 m 0,-1e-5 0.1711,-0.0175 m -0.3752,0.0999 -0.0766,0.0528 m 0.0766,-0.0528 0.0561,-0.0306 m -0.1847,0.12948 -0.0588,0.0648 m 0.0588,-0.0648 0.052,-0.0461 m -0.1532,0.17018 -0.041,0.0734 m 0.041,-0.0734 0.0424,-0.0593 m -0.1124,0.2023 -0.0228,0.0784 m 0.0228,-0.0784 0.029,-0.0696 m -0.0648,0.22435 -0.005,0.0794 m 0.005,-0.0794 0.013,-0.0764 m 0.5431,-0.52668 0.1547,-0.0175 m 1.56,-1.695 -0.0283,0.008 m 0,-3.3e-4 -0.1939,0.0759 m -0.113,0.0612 -0.1525,0.10559 m 0.1525,-0.10559 0.113,-0.0612 m -0.2655,0.16679 -0.1042,0.0922 m -0.2022,0.24813 0.0847,-0.11865 m -0.0847,0.11865 -0.082,0.1468 m 0.1667,-0.26545 0.1175,-0.1295 m -0.2842,0.39495 -0.058,0.1392 m 0,0 -0.0456,0.15671 m 0,0 -0.029,0.18106 m 0,0 -0.006,0.13047 m -10e-5,0.175 v 0.175 m 0,-0.175 v -0.175 m -0.5452,0.35 h 0.1212 m 0,0 h 0.2354 m 0,0 h 0.3359 m 0,0 h 0.4169 m 0,0 h 0.4506 m -52.8491,1.04994 h 0.0527 m 0,0 h 0.1553 m 0,0 h 0.2502 m 0,0 h 0.3325 m 0,0 h 0.3982 m 0,0 0.4438,1e-5 m 0,0 h 0.4673 m 74.2,7e-5 -74.2,-7e-5 m 74.2,7e-5 h 0.4673 m 0,0 h 0.4439 m 0,0 h 0.3981 m 0,0 h 0.3326 m 0,0 h 0.2501 m 0,0 h 0.1554 m 0,0 h 0.0526 m -78.4,21.69997 v -21.70005 m 0,21.70005 h 0.0526 m 0,0 h 0.1554 m 0,0 h 0.2501 m 0,0 h 0.3326 m 0,0 h 0.3981 m 0,0 h 0.4439 m 0,0 h 0.4673 m 74.2,0 h -74.2 m 23.1607,-6.51002 -0.1289,-1.06153 m 0,0 -0.3792,-0.99984 m 0,0 -0.6074,-0.88004 m 0,0 -0.8004,-0.7091 m 0,0 -0.9469,-0.49694 m 0,0 -1.0382,-0.25591 m 0,0 h -1.0694 m 0,0 -1.0382,0.25591 m 0,0 -0.9469,0.49694 m 0,0 -0.8004,0.70909 m 0,0 -0.6074,0.88004 m 0,0 -0.3792,0.99984 m 0,0 -0.1289,1.06153 m 0,0 0.1289,1.06153 m 0,0 0.3792,0.9998 m 0,0 0.6074,0.8801 m 0,0 0.8004,0.7091 m 0,0 0.9469,0.4969 m 0,0 1.0382,0.2559 m 0,0 h 1.0694 m 0,0 1.0382,-0.2559 m 0,0 0.9469,-0.4969 m 0,0 0.8004,-0.7091 m 0,0 0.6074,-0.8801 m 0,0 0.3792,-0.9998 m 0,0 0.1289,-1.06152 m 51.0393,6.51002 h 0.4673 m 0,0 h 0.4438 m 0,0 h 0.3982 m 0,0 h 0.3325 m 0,0 h 0.2502 m 0,0 h 0.1553 m 0,0 h 0.0527 m 0,0 v -21.69997 m -1.6327,21.69997 h -75.1346 m 50.8651,-27.3 h 0.023 m 0,0 h 0.1819 m 0,0 h 0.3531 m 0,0 h 0.5039 m 0,0 h 0.6254 m 0,0 h 0.7105 m 0,0 h 0.7544 m 0,0 h 0.7544 m 0,0 h 0.7105 m 0,0 h 0.6254 m 0,0 h 0.5039 m 0,0 h 0.3532 m 0,0 h 0.1818 m 0,0 h 0.023 m -28.4191,0 h 0.004 m -1.1e-4,0 h 0.008 m -4.5e-4,0 h 0.0108 m -3e-5,0 h 0.0134 m -2e-5,0 h 0.0152 m -1e-5,0 h 0.0161 m 4e-5,0 h 0.0161 m 3e-5,0 h 0.0152 m -1e-5,0 h 0.0134 m -2e-5,0 h 0.0108 m -3e-5,0 h 0.008 m -4.4e-4,0 h 0.004 m -16.42075,-4.9 h 0.1815 m 0,0 h 0.3526 m 0,0 h 0.503 m 0,0 h 0.6243 m 0,0 h 0.7093 m 0,0 h 0.753 m 0,0 h 0.7531 m 0,0 h 0.7093 m 0,0 h 0.6243 m 0,0 h 0.503 m 0,0 h 0.3525 m 0,0 h 0.1816 m 32.154,1.4 h 0.023 m 0,0 h 0.1819 m 0,0 h 0.3531 m 0,0 h 0.5039 m 0,0 h 0.6254 m 0,0 h 0.7105 m 0,0 h 0.7544 m 0,0 h 0.7544 m 0,0 h 0.7105 m 0,0 h 0.6254 m 0,0 h 0.5039 m 0,0 h 0.3532 m 0,0 h 0.1818 m 0,0 h 0.023" />
  </g>
</svg>
