<?xml version="1.0" encoding="UTF-8" standalone="no"?>
<!-- Created with Inkscape (http://www.inkscape.org/) -->

<svg
   width="45mm"
   height="45mm"
   viewBox="0 0 45 45.000001"
   version="1.1"
   id="svg1"
   inkscape:version="1.3.2 (091e20e, 2023-11-25, custom)"
   sodipodi:docname="rear.svg"
   xmlns:inkscape="http://www.inkscape.org/namespaces/inkscape"
   xmlns:sodipodi="http://sodipodi.sourceforge.net/DTD/sodipodi-0.dtd"
   xmlns="http://www.w3.org/2000/svg"
   xmlns:svg="http://www.w3.org/2000/svg"
   xmlns:rdf="http://www.w3.org/1999/02/22-rdf-syntax-ns#"
   xmlns:cc="http://creativecommons.org/ns#"
   xmlns:dc="http://purl.org/dc/elements/1.1/">
  <title
     id="title1">FreeCAD SVG Export</title>
  <sodipodi:namedview
     id="namedview1"
     pagecolor="#505050"
     bordercolor="#eeeeee"
     borderopacity="1"
     inkscape:showpageshadow="0"
     inkscape:pageopacity="0"
     inkscape:pagecheckerboard="0"
     inkscape:deskcolor="#d1d1d1"
     inkscape:document-units="mm"
     inkscape:zoom="0.76702441"
     inkscape:cx="-59.320146"
     inkscape:cy="166.22678"
     inkscape:window-width="1846"
     inkscape:window-height="1057"
     inkscape:window-x="1986"
     inkscape:window-y="373"
     inkscape:window-maximized="1"
     inkscape:current-layer="layer1" />
  <defs
     id="defs1" />
  <g
     inkscape:label="Layer 1"
     inkscape:groupmode="layer"
     id="layer1"
     transform="translate(-120.65,-104.51042)">
    <path
       id="path1648"
       style="font-style:normal;font-weight:400;font-size:29.1042px;font-family:'MS Shell Dlg 2';display:inline;fill:none;stroke:#000000;stroke-width:0.7;stroke-linecap:round;stroke-linejoin:bevel;stroke-opacity:1"
       d="m 128.1343,120.01043 h 0.0448 m 0,0 h 0.1317 m 0,0 h 0.211 m 0,0 h 0.278 m 0,0 h 0.3289 m 0,0 h 0.3606 m 0,0 h 0.3714 m 0,0 h 0.3606 m 0,0 h 0.3289 m 0,0 h 0.278 m 0,0 h 0.211 m 0,0 h 0.1317 m 0,0 h 0.0448 m -4.342,1.05 h 0.0814 m 0,0 h 0.2395 m 0,0 h 0.3836 m 0,0 0.5055,-1e-5 m 0,0 h 0.598 m 0,0 h 0.6556 m 0,0 h 0.6754 m 0,0 h 0.6556 m 0,0 h 0.598 m 0,0 0.5055,1e-5 m 0,0 h 0.3836 m 0,0 h 0.2395 m 0,0 h 0.0814 m 29.7487,22.04999 v -21.70005 m -38.15,21.70005 v -21.70005 m 13.82832,-8.39995 h 0.15246 m 0,0 h 0.44852 m 0,0 h 0.7185 m 0,0 h 0.94675 m 0,0 h 1.11995 m 0,0 h 1.22808 m 0,0 h 1.26484 m 0,0 h 1.22808 m 0,0 h 1.11995 m 0,0 h 0.94675 m 0,0 h 0.7185 m 0,0 h 0.44852 m 0,0 h 0.15246 m -1.18884,-1.8921 -0.44387,-0.1553 m -0.55873,-0.0526 0.55873,0.0526 m 0.84204,0.4055 -0.39817,-0.2502 m 0.73069,0.5827 -0.33252,-0.3325 m 0.58271,0.7307 -0.25019,-0.3982 m 0.4055,0.8421 -0.15531,-0.4439 m 0.20796,0.9112 -0.0526,-0.4673 m 0.0526,8.86725 v -8.39995 m -15.92038,8.39995 v -0.34994 m -0.3963,-0.63068 -0.148,-0.0518 m 0,3e-5 -0.2168,-0.0175 m 0.4975,0.15267 -0.1327,-0.0834 m 0.2435,0.19423 -0.1108,-0.11083 m 0.1942,0.24356 -0.0834,-0.13273 m 0.1352,0.28068 -0.0518,-0.14795 m 0.0694,0.30372 -0.0176,-0.15577 m -2.6471,-2.29423 0.3156,0.0351 m 0.2959,0.10354 -0.2959,-0.10354 m 0.5614,0.27033 -0.2655,-0.16679 m 0.4872,0.38847 -0.2217,-0.22168 m 0.3885,0.48713 -0.1668,-0.26545 m 0.2703,0.56136 -0.1035,-0.29591 m 0.1386,0.60744 -0.0351,-0.31153 m -1.9578,-1.05337 0.3156,-0.0351 m 1.6773,1.75 v -0.35 m -3.0814,0.35 v -0.35 m 0,0 0.0351,-0.31153 m 0,0 0.1035,-0.29591 m 0,0 0.1668,-0.26545 m 0,0 0.2217,-0.22168 m 0,0 0.2655,-0.16679 m 0,0 0.2959,-0.10354 m 0.3156,-0.0351 h 0.012 m 0,0 h 0.0193 m 0,0 h 0.0254 m 0,0 h 0.03 m 0,0 h 0.0329 m 0,0 h 0.034 m 0,0 h 0.0329 m 0,0 h 0.03 m 0,0 h 0.0254 m 0,0 h 0.0193 m 0,0 h 0.012 m -2.2379,1.75 h 0.0611 m 0,0 h 0.1796 m 0,0 h 0.2878 m 0,0 h 0.3791 m 0,0 h 0.4486 m 0,0 h 0.4918 m 0,0 h 0.5066 m 0,0 h 0.4918 m 0,0 h 0.4486 m 0,0 h 0.3791 m 0,0 h 0.2878 m 0,0 h 0.1796 m -4.8415,0.7 0.0176,-0.15577 m 0,0 0.0518,-0.14795 m 0,0 0.0834,-0.13273 m 0,0 0.1108,-0.11083 m 0,0 0.1327,-0.0834 m 0,0 0.148,-0.0518 m 0,3e-5 0.1557,-0.0175 m -0.7,1.04989 v -0.34994 m 35.3513,0.34994 h -38.15 m 38.15,0 h 0.4673 m 0,0 h 0.4439 m 0,0 h 0.3981 m 0,0 h 0.3325 m 0,0 h 0.2502 m 0,0 0.1553,1e-5 m 0,0 h 0.0527 m -40.25,-1e-5 h -0.4673 m 0,0 h -0.4439 m 0,0 h -0.3981 m 0,0 h -0.3325 m 0,0 h -0.2502 m 0,0 -0.1553,1e-5 m 0,0 h -0.0527 m 40.25,21.70004 h -38.15 m 22.10845,-11.69005 -0.0881,-0.72595 m 0,0 -0.25931,-0.68376 m 0,0 -0.41542,-0.60184 m 0,0 -0.54737,-0.48493 m 0,0 -0.64752,-0.33984 m 0,0 -0.71004,-0.17501 m 0,0 h -0.73128 m 0,0 -0.71004,0.17501 m 0,0 -0.64752,0.33984 m 0,0 -0.54737,0.48493 m 0,0 -0.41542,0.60184 m 0,0 -0.25931,0.68376 m 0,0 -0.0882,0.72595 m 5e-5,0 0.0882,0.72596 m -5e-5,0 0.25931,0.68376 m 0,0 0.41542,0.60183 m 0,0 0.54737,0.48493 m 0,0 0.64752,0.33985 m 0,0 0.71004,0.17501 m 0,0 h 0.73128 m 0,0 0.71004,-0.17501 m 0,0 0.64752,-0.33985 m 0,0 0.54737,-0.48493 m 0,0 0.41542,-0.60183 m 0,0 0.25931,-0.68376 m 0,0 0.0881,-0.72596 m 16.0416,11.69005 h 0.4673 m 0,0 h 0.4439 m 0,0 h 0.3981 m 0,0 h 0.3325 m 0,0 h 0.2502 m 0,0 h 0.1553 m 0,0 h 0.0527 m 0,0 v -21.70004 m -40.25,21.70004 h -0.4673 m 0,0 h -0.4439 m 0,0 h -0.3981 m 0,0 h -0.3325 m 0,0 h -0.2502 m 0,0 h -0.1553 m 0,0 h -0.0527 m 0,0 v -21.70004 m 15.92832,-1e-5 v -8.39995 m 25.05668,30.1 h -39.62 m 14.56332,-30.1 0.0526,-0.4673 m 5e-5,0 0.15531,-0.4439 m 0,0 0.25019,-0.3982 m 0,0 0.33252,-0.3325 m 0,0 0.39817,-0.2502 m 0,0 0.44387,-0.1553 m 0,0 0.46729,-0.0526 m 0,0 h 0.0914 m 4e-5,0 h 0.26899 m 0,0 h 0.43093 m 0,0 h 0.5678 m 0,0 h 0.67169 m 0,0 h 0.73654 m 0,0 h 0.75858 m 0,0 h 0.73654 m 0,0 h 0.67169 m 0,0 h 0.5678 m 0,0 h 0.43093 m 0,0 h 0.26899 m 16.75476,32.2 v 0 m -39.62,0 v 0" />
  </g>
  <metadata
     id="metadata1">
    <rdf:RDF>
      <cc:Work
         rdf:about="">
        <dc:title>FreeCAD SVG Export</dc:title>
      </cc:Work>
    </rdf:RDF>
  </metadata>
</svg>
