<?xml version="1.0" encoding="UTF-8" standalone="no"?>
<svg
   height="80mm"
   width="80mm"
   viewBox="0 0 800 800.00001"
   version="1.2"
   id="svg1648"
   sodipodi:docname="right.svg"
   inkscape:version="1.3.2 (091e20e, 2023-11-25, custom)"
   xmlns:inkscape="http://www.inkscape.org/namespaces/inkscape"
   xmlns:sodipodi="http://sodipodi.sourceforge.net/DTD/sodipodi-0.dtd"
   xmlns="http://www.w3.org/2000/svg"
   xmlns:svg="http://www.w3.org/2000/svg"
   xmlns:rdf="http://www.w3.org/1999/02/22-rdf-syntax-ns#"
   xmlns:cc="http://creativecommons.org/ns#"
   xmlns:dc="http://purl.org/dc/elements/1.1/">
  <sodipodi:namedview
     id="namedview1648"
     pagecolor="#505050"
     bordercolor="#eeeeee"
     borderopacity="1"
     inkscape:showpageshadow="0"
     inkscape:pageopacity="0"
     inkscape:pagecheckerboard="0"
     inkscape:deskcolor="#d1d1d1"
     inkscape:document-units="mm"
     inkscape:zoom="4.0409092"
     inkscape:cx="139.69628"
     inkscape:cy="169.64004"
     inkscape:window-width="1618"
     inkscape:window-height="1027"
     inkscape:window-x="3894"
     inkscape:window-y="460"
     inkscape:window-maximized="1"
     inkscape:current-layer="Page" />
  <title
     id="title1">FreeCAD SVG Export</title>
  <desc
     id="desc1">Drawing page: Page exported from FreeCAD document: buffer_boost_model</desc>
  <defs
     id="defs1" />
  <g
     inkscape:label="TechDraw"
     inkscape:groupmode="layer"
     id="Page"
     transform="translate(-1919.58,-13.223009)">
    <path
       id="path1204"
       style="font-style:normal;font-weight:400;font-size:29.1042px;font-family:'MS Shell Dlg 2';fill:none;stroke:#000000;stroke-width:7;stroke-linecap:round;stroke-linejoin:bevel;stroke-opacity:1"
       d="m 2177.83,343.2231 h 3.687 m 0,0 h 3.473 m 0,0 h 3.057 m 0,0 h 2.463 m 0,0 h 1.726 m 0,0 h 0.889 m 0,0 h 0.112 m -30.814,0 h 0.112 m 0,0 h 0.889 m 0,0 h 1.726 m 0,0 h 2.463 m 0,0 h 3.057 m 0,0 h 3.473 m 0,0 h 3.687 m 0,10.5 h 6.704 m 0,0 h 6.314 m 0,0 h 5.558 m 0,0 4.478,-10e-5 m 0,0 h 3.138 m 0,0 h 1.616 m 0,0 h 0.205 m -56.026,10e-5 h 0.204 m 0,0 h 1.617 m 0,0 h 3.138 m 0,0 h 4.478 m 0,0 h 5.558 m 0,0 h 6.314 m 0,0 h 6.704 M 2690.58,574.223 V 357.2226 m -742,217.0004 V 357.2233 m 458.4998,-48.3003 h 2.0041 m 0,0 h 1.8876 m 0,0 h 1.6614 m 0,0 h 1.3387 m 0,0 h 0.9382 m 0,0 h 0.4831 m 0,0 h 0.061 m -16.7482,0 h 0.061 m 10e-5,0 h 0.4831 m 0,0 h 0.9382 m 0,0 h 1.3387 m 0,0 h 1.6614 m 0,0 h 1.8876 m 0,0 h 2.004 m 132.3002,-35.7 h 12.556 m 0,0 h 11.826 m 0,0 h 10.41 m 0,0 h 8.387 m 0,0 h 5.878 m 0,0 h 3.027 m 0,0 h 0.383 m -104.934,0 h 0.383 m 0,0 h 3.026 m 0,0 h 5.878 m 0,0 h 8.388 m 0,0 h 10.409 m 0,0 h 11.827 m 0,0 h 12.556 m -415.822,10.5 v 17.5 m 0,-17.5 v -17.5 m 63.044,17.5 v 17.5 m 0,-17.5 v -17.5 m 315.124,-13.059 -2.925,1.138 m 2.925,-1.138 1.514,-0.415 m 0,0 4.902,-0.526 m -9.341,2.079 -1.691,0.918 m 0,0 -2.29,1.584 m -1.563,1.383 -1.762,1.942 m 1.762,-1.942 1.563,-1.383 m -3.325,3.325 -1.272,1.78 m 0,0 -1.23,2.202 m 0,0 -0.87,2.088 m 0,0 -0.683,2.351 m 0,0 -0.392,2.292 m 0,0 -0.135,2.381 m 88.607,-20.474 -4.903,-0.526 m 4.903,0.526 1.513,0.415 m 0,0 2.925,1.138 m 1.691,0.918 2.291,1.584 m -2.291,-1.584 -1.691,-0.918 m 3.982,2.502 1.563,1.383 m 0,0 1.762,1.942 m 1.272,1.78 1.23,2.202 m -1.23,-2.202 -1.272,-1.78 m 3.372,6.07 0.683,2.351 m -0.683,-2.351 -0.87,-2.088 m 1.944,6.731 0.136,2.381 m -0.136,-2.381 -0.391,-2.292 m -16.064,-15.801 -4.639,-0.526 m -165.9247,49.193 1.7183,-0.193 m -1.7183,0.193 -0.5609,0.152 m -1.0666,0.417 -0.6215,0.337 m 0.6215,-0.337 1.0666,-0.417 m -3.1,1.842 -0.6458,0.712 m 0.6458,-0.712 0.5735,-0.507 m 0,0 0.8384,-0.581 m -2.0577,1.8 -0.4664,0.653 m 0,0 -0.4509,0.807 m 0,0 -0.319,0.766 m 0,0 -0.2505,0.861 m 0,0 -0.1595,0.996 m 0,0 -0.034,0.718 m 10.7621,-7.507 -1.7184,-0.193 m 1.7184,0.193 0.5609,0.152 m 0,0 1.0666,0.417 m 0,0 0.6214,0.337 m 0,0 0.8385,0.581 m 0.5734,0.507 0.6459,0.712 m -0.6459,-0.712 -0.5734,-0.507 m 1.6856,1.872 0.451,0.807 m -0.451,-0.807 -0.4663,-0.653 m 0.9173,1.46 0.3189,0.766 m 0,0 0.2506,0.861 m 0,0 0.1595,0.996 m 0,0 0.034,0.718 m -10.7258,-7.507 1.682,-0.193 m 80.5024,13.9998 v 42 m 0,-42 V 273.223 m 104.934,41.9997 v 42 m 0,-42 V 273.223 m -193.1412,59.8499 v 24.15 m 0,-24.15 -1e-4,-24.1499 m 16.7483,24.1498 v 24.15 m 0,-24.15 V 308.923 m -288.383,20.3001 v 28 m 0,-28 V 301.223 m 56.018,28.0001 v 0.5505 m 0,-0.5505 V 301.223 m -33.272,54.2501 v 1.75 m 0,-1.75 v -1.75 m 56.026,1.7499 v 1.75 m 0,-1.75 v -1.75 m -50.583,-6.8244 -0.497,0.1381 m 0.497,-0.1381 1.71,-0.1755 m -2.207,0.3136 -0.983,0.3796 m -0.561,0.306 -0.766,0.528 m 0.766,-0.528 0.561,-0.306 m -1.327,0.834 -0.52,0.4609 m -0.589,0.6475 -0.423,0.5932 m 0.423,-0.5932 0.589,-0.6475 m -1.012,1.2407 -0.411,0.734 m -0.289,0.696 -0.228,0.7836 m 0.228,-0.7836 0.289,-0.696 m -0.517,1.4796 -0.131,0.7639 m 0,0 -0.045,0.7937 m 51.08,-6.6864 0.983,0.3796 m -0.983,-0.3796 -0.497,-0.1381 m 0,0 -1.711,-0.1755 m 3.752,0.9992 0.766,0.5279 m -0.766,-0.5279 -0.561,-0.306 m 1.847,1.2948 0.588,0.6475 m -0.588,-0.6475 -0.52,-0.4609 m 1.532,1.7017 0.41,0.734 m -0.41,-0.734 -0.424,-0.5933 m 1.124,2.0233 0.228,0.7835 m -0.228,-0.7835 -0.29,-0.696 m 0.648,2.2435 0.046,0.7936 m -0.046,-0.7936 -0.13,-0.764 m -33.379,-22.3151 1.02,-0.2762 m -1.02,0.2762 -1.94,0.7592 m 2.96,-1.0354 3.125,-0.351 m -7.214,1.9984 -1.525,1.0559 m 1.525,-1.0559 1.129,-0.612 m -3.697,2.5897 -1.174,1.295 m 1.174,-1.295 1.043,-0.9218 m -2.217,2.2168 -0.848,1.1865 m 0,0 -0.82,1.468 m -0.58,1.3921 -0.455,1.567 m 0.455,-1.567 0.58,-1.3921 m -1.035,2.9591 -0.29,1.8106 m 0,0 -0.061,1.3047 m 19.929,-13.649 1.02,0.2762 m -1.02,-0.2762 -3.125,-0.351 m 4.145,0.6272 1.939,0.7592 m 1.13,0.612 1.525,1.0559 m -1.525,-1.0559 -1.13,-0.612 m 2.655,1.6679 1.042,0.9218 m 2.022,2.4815 -0.847,-1.1865 m 0.847,1.1865 0.82,1.468 m -1.667,-2.6545 -1.175,-1.295 m 2.842,3.9495 0.58,1.392 m 0,0 0.456,1.5671 m 0,0 0.29,1.8106 m 0,0 0.061,1.3047 m -19.861,-13.649 3.057,-0.351 m -14.01,15.75 v -1.75 m 0,1.75 v 1.75 m 30.814,-1.75 v 1.75 m 0,-1.75 v -1.75 m -15.407,-14 h 0.337 m 0,0 h 0.317 m 0,0 h 0.279 m 0,0 h 0.225 m 0,0 h 0.157 m 0,0 h 0.082 m -2.794,0 h 0.081 m 0,0 h 0.158 m 0,0 h 0.225 m 0,0 h 0.279 m 0,0 h 0.317 m 0,0 h 0.337 m 0,17.5 h 5.029 m 0,0 h 4.736 m 0,0 h 4.169 m 0,0 h 3.359 m 0,0 h 2.354 m 0,0 h 1.212 m -41.719,0 h 1.213 m 0,0 h 2.354 m 0,0 h 3.359 m 0,0 h 4.169 m 0,0 h 4.736 m 0,0 h 5.029 m 533.75,10.4994 h -0.527 m 0,0 h -1.553 m 0,0 h -2.502 m 0,0 h -3.325 m 0,0 h -3.982 m 0,0 -4.438,10e-5 m 0,0 h -4.673 m 0,0 -742,7e-4 m 0,0 h -4.673 m 0,0 h -4.439 m 0,0 h -3.981 m 0,0 h -3.326 m 0,0 h -2.501 m 0,0 h -1.554 m 0,0 h -0.526 m 784,216.9997 V 357.2225 m 0,217.0005 h -0.526 m 0,0 h -1.554 m 0,0 h -2.501 m 0,0 h -3.326 m 0,0 h -3.981 m 0,0 h -4.439 m 0,0 h -4.673 m 0,0 h -742 m 599.136,-65.1003 -1.29,-10.6223 m 0,0 -3.794,-10.0049 m 0,0 -6.079,-8.8062 m 0,0 -8.009,-7.0956 m 0,0 -9.474,-4.9727 m 0,0 -10.39,-2.5607 m 0,0 h -10.7 m 0,0 -10.39,2.5608 m 0,0 -9.474,4.9726 m 0,0 -8.009,7.0957 m 0,0 -6.079,8.8061 m 0,0 -3.794,10.005 m 0,0 -1.29,10.6223 m 0,0 1.29,10.6222 m 0,0 3.794,10.005 m 0,0 6.079,8.806 m 0,0 8.009,7.096 m 0,0 9.475,4.972 m 0,0 10.389,2.561 m 0,0 h 10.7 m 0,0 10.39,-2.561 m 0,0 9.474,-4.972 m 0,0 8.01,-7.096 m 0,0 6.078,-8.806 m 0,0 3.794,-10.005 m 0,0 1.29,-10.6223 M 1948.58,574.223 h -4.673 m 0,0 h -4.438 m 0,0 h -3.982 m 0,0 h -3.325 m 0,0 h -2.502 m 0,0 h -1.553 m 0,0 h -0.527 m 0,0 V 357.2233 m 767.673,216.9997 h -751.346 m 515.066,-65.1002 1.289,-10.6153 m 0,0 3.792,-9.9984 m 0,0 6.074,-8.8004 m 0,0 8.004,-7.091 m 0,0 9.469,-4.9694 m 0,0 10.382,-2.5591 m 0,0 h 10.694 m 0,0 10.382,2.5591 m 0,0 9.469,4.9694 m 0,0 8.004,7.0909 m 0,0 6.074,8.8004 m 0,0 3.792,9.9984 m 0,0 1.289,10.6153 m 0,0 -1.289,10.6153 m 0,0 -3.792,9.998 m 0,0 -6.074,8.801 m 0,0 -8.004,7.091 m 0,0 -9.469,4.969 m 0,0 -10.382,2.559 m 0,0 h -10.694 m 0,0 -10.382,-2.559 m 0,0 -9.469,-4.969 m 0,0 -8.004,-7.091 m 0,0 -6.074,-8.801 m 0,0 -3.792,-9.998 m 0,0 -1.289,-10.6152 M 2155.08,301.223 h 7.544 m 0,0 h 7.105 m 0,0 h 6.254 m 0,0 h 5.039 m 0,0 h 3.531 m 0,0 h 1.819 m 0,0 h 0.23 m -63.044,0 h 0.23 m 0,0 h 1.818 m 0,0 h 3.532 m 0,0 h 5.039 m 0,0 h 6.254 m 0,0 h 7.105 m 0,0 h 7.544 m 251.9998,0 h 0.1614 m 0,0 h 0.1519 m 0,0 h 0.1338 m 0,0 h 0.1077 m 0,0 h 0.075 m 5e-4,0 h 0.039 m -1.3385,0 h 0.039 m -10e-5,0 h 0.076 m -4e-4,0 h 0.1077 m 0,0 h 0.1338 m 0,0 h 0.1519 m 0,0 h 0.1613 m 132.3002,-49 h 7.53 m 0,0 h 7.093 m 0,0 h 6.243 m 0,0 h 5.03 m 0,0 h 3.526 m 0,0 h 1.815 m -62.475,0 h 1.816 m 0,0 h 3.525 m 0,0 h 5.03 m 0,0 h 6.243 m 0,0 h 7.093 m 0,0 h 7.531 m -384.3,14 h 7.544 m 0,0 h 7.105 m 0,0 h 6.254 m 0,0 h 5.039 m 0,0 h 3.531 m 0,0 h 1.819 m 0,0 h 0.23 m -63.044,0 h 0.23 m 0,0 h 1.818 m 0,0 h 3.532 m 0,0 h 5.039 m 0,0 h 6.254 m 0,0 h 7.105 m 0,0 h 7.544" />
    <path
       id="path4"
       style="vector-effect:non-scaling-stroke;fill:#000000;stroke-width:2.64583;stroke-linecap:square;-inkscape-stroke:hairline"
       d="m 2414.822,476.6575 a 29.000001,29.000001 0 0 0 -29.0009,29.0009 29.000001,29.000001 0 0 0 29.0009,29.0008 29.000001,29.000001 0 0 0 28.9956,-29.0008 29.000001,29.000001 0 0 0 -28.9956,-29.0009 z m -1.1421,13.2706 h 5.2503 v 30.2203 h -6.3872 v -17.4873 c 0,-0.482 0.01,-1.0748 0.02,-1.7776 0.01,-0.717 0.03,-1.447 0.06,-2.1911 0.03,-0.758 0.06,-1.4401 0.08,-2.0464 -0.152,0.179 -0.462,0.489 -0.93,0.93 -0.455,0.427 -0.882,0.813 -1.2816,1.1575 l -3.4726,2.7905 -3.0799,-3.8447 z" />
  </g>
  <metadata
     id="metadata1655">
    <rdf:RDF>
      <cc:Work
         rdf:about="">
        <dc:title>FreeCAD SVG Export</dc:title>
      </cc:Work>
    </rdf:RDF>
  </metadata>
</svg>
