<?xml version="1.0" encoding="UTF-8" standalone="no"?>
<!-- Created with Inkscape (http://www.inkscape.org/) -->

<svg
   width="80mm"
   height="80mm"
   viewBox="0 0 80 80"
   version="1.1"
   id="svg1"
   inkscape:version="1.3.2 (091e20e, 2023-11-25, custom)"
   sodipodi:docname="top.svg"
   xmlns:inkscape="http://www.inkscape.org/namespaces/inkscape"
   xmlns:sodipodi="http://sodipodi.sourceforge.net/DTD/sodipodi-0.dtd"
   xmlns="http://www.w3.org/2000/svg"
   xmlns:svg="http://www.w3.org/2000/svg"
   xmlns:rdf="http://www.w3.org/1999/02/22-rdf-syntax-ns#"
   xmlns:cc="http://creativecommons.org/ns#"
   xmlns:dc="http://purl.org/dc/elements/1.1/">
  <title
     id="title1">FreeCAD SVG Export</title>
  <sodipodi:namedview
     id="namedview1"
     pagecolor="#505050"
     bordercolor="#eeeeee"
     borderopacity="1"
     inkscape:showpageshadow="0"
     inkscape:pageopacity="0"
     inkscape:pagecheckerboard="0"
     inkscape:deskcolor="#d1d1d1"
     inkscape:document-units="mm"
     inkscape:zoom="2.1694726"
     inkscape:cx="117.30962"
     inkscape:cy="150.03647"
     inkscape:window-width="1846"
     inkscape:window-height="1057"
     inkscape:window-x="1986"
     inkscape:window-y="373"
     inkscape:window-maximized="1"
     inkscape:current-layer="layer1" />
  <defs
     id="defs1" />
  <g
     inkscape:label="Layer 1"
     inkscape:groupmode="layer"
     id="layer1"
     transform="translate(-126.20625,-121.44375)">
    <path
       id="path854"
       d="m 179.82195,175.61875 -0.004,-0.0337 m 0,0 -0.012,-0.0317 m 0,0 -0.0193,-0.0279 m 0,0 -0.0254,-0.0225 m 0,0 -0.03,-0.0158 m 0,0 -0.0329,-0.008 m 0,0 h -0.034 m 0,0 -0.0329,0.008 m 0,0 -0.03,0.0158 m 0,0 -0.0254,0.0225 m 0,0 -0.0193,0.0279 m 0,0 -0.012,0.0317 m 0,0 -0.004,0.0337 m 0,0 0.004,0.0337 m 0,0 0.012,0.0317 m 0,0 0.0193,0.0279 m 0,0 0.0254,0.0225 m 0,0 0.03,0.0158 m 0,0 0.0329,0.008 m 0,0 h 0.034 m 0,0 0.0329,-0.008 m 0,0 0.03,-0.0158 m 0,0 0.0254,-0.0225 m 0,0 0.0193,-0.0279 m 0,0 0.012,-0.0317 m 0,0 0.004,-0.0337 m 1.9606,0 -0.0611,-0.5029 m 0,0 -0.1796,-0.4736 m 0,0 -0.2878,-0.4169 m 0,0 -0.3791,-0.3359 m 0,0 -0.4486,-0.2354 m 0,0 -0.4918,-0.1212 m 0,0 h -0.5066 m 0,0 -0.4918,0.1212 m 0,0 -0.4486,0.2354 m 0,0 -0.3791,0.3359 m 0,0 -0.2878,0.4169 m 0,0 -0.1796,0.4736 m 0,0 -0.0611,0.5029 m 0,0 0.0611,0.5029 m 0,0 0.1796,0.4736 m 0,0 0.2878,0.4169 m 0,0 0.3791,0.3359 m 0,0 0.4486,0.2354 m 0,0 0.4918,0.1212 m 0,0 h 0.5066 m 0,0 0.4918,-0.1212 m 0,0 0.4486,-0.2354 m 0,0 0.3791,-0.3359 m 0,0 0.2878,-0.4169 m 0,0 0.1796,-0.4736 m 0,0 0.0611,-0.5029 m -15.50889,-22.925 -0.002,-0.0161 m 0,0 -0.006,-0.0152 m 0,0 -0.009,-0.0134 m 0,0 -0.0122,-0.0108 m 0,0 -0.0144,-0.008 m 0,0 -0.0158,-0.004 m 0,0 h -0.0163 m 0,0 -0.0158,0.004 m 0,0 -0.0144,0.008 m 0,0 -0.0122,0.0108 m 0,0 -0.009,0.0134 m 0,0 -0.006,0.0152 m 0,0 -0.002,0.0161 m 0,0 0.002,0.0161 m 0,0 0.006,0.0152 m 0,0 0.009,0.0134 m 0,0 0.0122,0.0108 m 0,0 0.0144,0.008 m 0,0 0.0158,0.004 m 0,0 h 0.0163 m 0,0 0.0158,-0.004 m 0,0 0.0144,-0.008 m 0,0 0.0122,-0.0108 m 0,0 0.009,-0.0134 m 0,0 0.006,-0.0152 m 0,0 0.002,-0.0161 m 3.07927,-13.23 -0.0914,-0.753 m 0,0 -0.26899,-0.7093 m 0,0 -0.43093,-0.6243 m 0,0 -0.5678,-0.5031 m 0,0 -0.67169,-0.3525 m 0,0 -0.73654,-0.1815 m 0,0 H 165.827 m 0,0 -0.73654,0.1815 m 0,0 -0.67169,0.3525 m 0,0 -0.5678,0.5031 m 0,0 -0.43093,0.6243 m 0,0 -0.26899,0.7093 m 0,0 -0.0914,0.753 m 0,0 0.0914,0.753 m 0,0 0.26899,0.7093 m 0,0 0.43093,0.6243 m 0,0 0.5678,0.5031 m 0,0 0.67169,0.3525 m 0,0 0.73654,0.1815 m 0,0 h 0.75858 m 0,0 0.73654,-0.1815 m 0,0 0.67169,-0.3525 m 0,0 0.5678,-0.5031 m 0,0 0.43093,-0.6243 m 0,0 0.26899,-0.7093 m 0,0 0.0914,-0.753 m 11.86902,36.155 -0.0448,-0.3687 m 0,0 -0.1317,-0.3473 m 0,0 -0.211,-0.3057 m 0,0 -0.278,-0.2463 m 0,0 -0.3289,-0.1726 m 0,0 -0.3606,-0.0889 m 0,0 h -0.3714 m 0,0 -0.3606,0.0889 m 0,0 -0.3289,0.1726 m 0,0 -0.278,0.2463 m 0,0 -0.211,0.3057 m 0,0 -0.1317,0.3473 m 0,0 -0.0448,0.3687 m 0,0 0.0448,0.3687 m 0,0 0.1317,0.3473 m 0,0 0.211,0.3057 m 0,0 0.278,0.2463 m 0,0 0.3289,0.1726 m 0,0 0.3606,0.0889 m 0,0 h 0.3714 m 0,0 0.3606,-0.0889 m 0,0 0.3289,-0.1726 m 0,0 0.278,-0.2463 m 0,0 0.211,-0.3057 m 0,0 0.1317,-0.3473 m 0,0 0.0448,-0.3687 m 1.2606,0 -0.0814,-0.6704 m 0,0 -0.2395,-0.6314 m 0,0 -0.3836,-0.5558 m 0,0 -0.5055,-0.4478 m 0,0 -0.598,-0.3138 m 0,0 -0.6556,-0.1616 m 0,0 h -0.6754 m 0,0 -0.6556,0.1616 m 0,0 -0.598,0.3138 m 0,0 -0.5055,0.4478 m 0,0 -0.3836,0.5558 m 0,0 -0.2395,0.6314 m 0,0 -0.0814,0.6704 m 0,0 0.0814,0.6704 m 0,0 0.2395,0.6314 m 0,0 0.3836,0.5558 m 0,0 0.5055,0.4478 m 0,0 0.598,0.3138 m 0,0 0.6556,0.1616 m 0,0 h 0.6754 m 0,0 0.6556,-0.1616 m 0,0 0.598,-0.3138 m 0,0 0.5055,-0.4478 m 0,0 0.3836,-0.5558 m 0,0 0.2395,-0.6314 m 0,0 0.0814,-0.6704 m -35.3513,-53.375 h 38.15 m -38.15,0 -0.4673,0.0527 m 0,0 -0.4439,0.1553 m 0,0 -0.3981,0.2502 m 0,0 -0.3325,0.3325 m 0,0 -0.2502,0.3981 m 0,0 -0.1553,0.4439 m 0,0 -0.0527,0.4673 m 40.25,-2.1 0.4673,0.0527 m 0,0 0.4439,0.1553 m 0,0 0.3981,0.2502 m 0,0 0.3325,0.3325 m 0,0 0.2502,0.3981 m 0,0 0.1553,0.4439 m 0,0 0.0527,0.4673 m -42.35,74.2 v -74.2 m 42.35,0 v 74.2 m -42.35,0 0.0527,0.4673 m 0,0 0.1553,0.4439 m 0,0 0.2502,0.3981 m 0,0 0.3325,0.3325 m 0,0 0.3981,0.2502 m 0,0 0.4439,0.1553 m 0,0 0.4673,0.0527 m 40.25,-2.1 -0.0527,0.4673 m 0,0 -0.1553,0.4439 m 0,0 -0.2502,0.3981 m 0,0 -0.3325,0.3325 m 0,0 -0.3981,0.2502 m 0,0 -0.4439,0.1553 m 0,0 -0.4673,0.0527 m 0,0 h -38.15 m 19.91241,-47.95 -0.0243,-0.20041 m 0,0 -0.0716,-0.18875 m 0,0 -0.11468,-0.16615 m 0,0 -0.15111,-0.13387 m 0,0 -0.17875,-0.0938 m 0,0 -0.19601,-0.0483 m 0,0 h -0.20188 m 0,0 -0.19601,0.0483 m 0,0 -0.17875,0.0938 m 0,0 -0.15111,0.13387 m 0,0 -0.11468,0.16615 m 0,0 -0.0716,0.18875 m 0,0 -0.0243,0.20041 m 0,0 0.0243,0.20041 m 0,0 0.0716,0.18875 m 0,0 0.11468,0.16615 m 0,0 0.15111,0.13387 m 0,0 0.17875,0.0938 m 0,0 0.19601,0.0483 m 0,0 h 0.20188 m 0,0 0.19601,-0.0483 m 0,0 0.17875,-0.0938 m 0,0 0.15111,-0.13387 m 0,0 0.11468,-0.16615 m 0,0 0.0716,-0.18875 m 0,0 0.0243,-0.20041 m 4.40927,-13.23 -0.15246,-1.2556 m 0,0 -0.44852,-1.1827 m 0,0 -0.7185,-1.0409 m 0,0 -0.94675,-0.8387 m 0,0 -1.11995,-0.5878 m 0,0 -1.22808,-0.3027 m 0,0 h -1.26484 m 0,0 -1.22808,0.3027 m 0,0 -1.11995,0.5878 m 0,0 -0.94675,0.8387 m 0,0 -0.7185,1.0409 m 0,0 -0.44852,1.1827 m 0,0 -0.15246,1.2556 m 0,0 0.15246,1.2556 m 0,0 0.44852,1.1827 m 0,0 0.7185,1.0409 m 0,0 0.94675,0.8387 m 0,0 1.11995,0.5878 m 0,0 1.22808,0.3027 m 0,0 h 1.26484 m 0,0 1.22808,-0.3027 m 0,0 1.11995,-0.5878 m 0,0 0.94675,-0.8387 m 0,0 0.7185,-1.0409 m 0,0 0.44852,-1.1827 m 0,0 0.15246,-1.2556 m -2.09448,38.43 -0.0916,-0.7544 m 0,0 -0.26947,-0.7105 m 0,0 -0.43168,-0.6254 m 0,0 -0.5688,-0.5039 m 0,0 -0.67286,-0.3532 m 0,0 -0.73783,-0.1818 m 0,0 h -0.75992 m 0,0 -0.73783,0.1818 m 0,0 -0.67286,0.3532 m 0,0 -0.5688,0.5039 m 0,0 -0.43168,0.6254 m 0,0 -0.26947,0.7105 m 0,0 -0.0916,0.7544 m 0,0 0.0916,0.7544 m 0,0 0.26947,0.7105 m 0,0 0.43168,0.6254 m 0,0 0.5688,0.5039 m 0,0 0.67286,0.3532 m 0,0 0.73783,0.1818 m 0,0 h 0.75992 m 0,0 0.73783,-0.1818 m 0,0 0.67286,-0.3532 m 0,0 0.5688,-0.5039 m 0,0 0.43168,-0.6254 m 0,0 0.26947,-0.7105 m 0,0 0.0916,-0.7544"
       style="font-style:normal;font-weight:400;font-size:29.1042px;font-family:'MS Shell Dlg 2';fill:none;fill-rule:evenodd;stroke:#000000;stroke-width:0.7;stroke-linecap:round;stroke-linejoin:bevel;stroke-opacity:1" />
  </g>
  <metadata
     id="metadata1">
    <rdf:RDF>
      <cc:Work
         rdf:about="">
        <dc:title>FreeCAD SVG Export</dc:title>
      </cc:Work>
    </rdf:RDF>
  </metadata>
</svg>
