<?xml version="1.0" encoding="UTF-8" standalone="no"?>
<!-- Created with Inkscape (http://www.inkscape.org/) -->

<svg
   width="80mm"
   height="80mm"
   viewBox="0 0 80 80"
   version="1.1"
   id="svg1"
   inkscape:version="1.3.2 (091e20e, 2023-11-25, custom)"
   sodipodi:docname="top.svg"
   xmlns:inkscape="http://www.inkscape.org/namespaces/inkscape"
   xmlns:sodipodi="http://sodipodi.sourceforge.net/DTD/sodipodi-0.dtd"
   xmlns="http://www.w3.org/2000/svg"
   xmlns:svg="http://www.w3.org/2000/svg"
   xmlns:rdf="http://www.w3.org/1999/02/22-rdf-syntax-ns#"
   xmlns:cc="http://creativecommons.org/ns#"
   xmlns:dc="http://purl.org/dc/elements/1.1/">
  <title
     id="title1">FreeCAD SVG Export</title>
  <sodipodi:namedview
     id="namedview1"
     pagecolor="#505050"
     bordercolor="#eeeeee"
     borderopacity="1"
     inkscape:showpageshadow="0"
     inkscape:pageopacity="0"
     inkscape:pagecheckerboard="0"
     inkscape:deskcolor="#d1d1d1"
     inkscape:document-units="mm"
     inkscape:zoom="2.4224403"
     inkscape:cx="105.47216"
     inkscape:cy="160.78828"
     inkscape:window-width="1846"
     inkscape:window-height="1057"
     inkscape:window-x="1986"
     inkscape:window-y="373"
     inkscape:window-maximized="1"
     inkscape:current-layer="layer1" />
  <defs
     id="defs1">
    <rect
       x="112.69628"
       y="204.54581"
       width="23.736396"
       height="23.323589"
       id="rect4" />
    <rect
       x="130.65338"
       y="110.83865"
       width="15.273855"
       height="20.640344"
       id="rect3" />
    <rect
       x="172.14047"
       y="193.19362"
       width="14.448241"
       height="22.497975"
       id="rect2" />
    <rect
       x="177.91976"
       y="43.138319"
       width="35.088585"
       height="31.166919"
       id="rect1" />
  </defs>
  <g
     inkscape:label="Layer 1"
     inkscape:groupmode="layer"
     id="layer1"
     transform="translate(-126.20625,-121.44375)">
    <path
       id="path854"
       d="m 179.82195,175.61875 -0.004,-0.0337 m 0,0 -0.012,-0.0317 m 0,0 -0.0193,-0.0279 m 0,0 -0.0254,-0.0225 m 0,0 -0.03,-0.0158 m 0,0 -0.0329,-0.008 m 0,0 h -0.034 m 0,0 -0.0329,0.008 m 0,0 -0.03,0.0158 m 0,0 -0.0254,0.0225 m 0,0 -0.0193,0.0279 m 0,0 -0.012,0.0317 m 0,0 -0.004,0.0337 m 0,0 0.004,0.0337 m 0,0 0.012,0.0317 m 0,0 0.0193,0.0279 m 0,0 0.0254,0.0225 m 0,0 0.03,0.0158 m 0,0 0.0329,0.008 m 0,0 h 0.034 m 0,0 0.0329,-0.008 m 0,0 0.03,-0.0158 m 0,0 0.0254,-0.0225 m 0,0 0.0193,-0.0279 m 0,0 0.012,-0.0317 m 0,0 0.004,-0.0337 m 1.9606,0 -0.0611,-0.5029 m 0,0 -0.1796,-0.4736 m 0,0 -0.2878,-0.4169 m 0,0 -0.3791,-0.3359 m 0,0 -0.4486,-0.2354 m 0,0 -0.4918,-0.1212 m 0,0 h -0.5066 m 0,0 -0.4918,0.1212 m 0,0 -0.4486,0.2354 m 0,0 -0.3791,0.3359 m 0,0 -0.2878,0.4169 m 0,0 -0.1796,0.4736 m 0,0 -0.0611,0.5029 m 0,0 0.0611,0.5029 m 0,0 0.1796,0.4736 m 0,0 0.2878,0.4169 m 0,0 0.3791,0.3359 m 0,0 0.4486,0.2354 m 0,0 0.4918,0.1212 m 0,0 h 0.5066 m 0,0 0.4918,-0.1212 m 0,0 0.4486,-0.2354 m 0,0 0.3791,-0.3359 m 0,0 0.2878,-0.4169 m 0,0 0.1796,-0.4736 m 0,0 0.0611,-0.5029 m -15.50889,-22.925 -0.002,-0.0161 m 0,0 -0.006,-0.0152 m 0,0 -0.009,-0.0134 m 0,0 -0.0122,-0.0108 m 0,0 -0.0144,-0.008 m 0,0 -0.0158,-0.004 m 0,0 h -0.0163 m 0,0 -0.0158,0.004 m 0,0 -0.0144,0.008 m 0,0 -0.0122,0.0108 m 0,0 -0.009,0.0134 m 0,0 -0.006,0.0152 m 0,0 -0.002,0.0161 m 0,0 0.002,0.0161 m 0,0 0.006,0.0152 m 0,0 0.009,0.0134 m 0,0 0.0122,0.0108 m 0,0 0.0144,0.008 m 0,0 0.0158,0.004 m 0,0 h 0.0163 m 0,0 0.0158,-0.004 m 0,0 0.0144,-0.008 m 0,0 0.0122,-0.0108 m 0,0 0.009,-0.0134 m 0,0 0.006,-0.0152 m 0,0 0.002,-0.0161 m 3.07927,-13.23 -0.0914,-0.753 m 0,0 -0.26899,-0.7093 m 0,0 -0.43093,-0.6243 m 0,0 -0.5678,-0.5031 m 0,0 -0.67169,-0.3525 m 0,0 -0.73654,-0.1815 m 0,0 H 165.827 m 0,0 -0.73654,0.1815 m 0,0 -0.67169,0.3525 m 0,0 -0.5678,0.5031 m 0,0 -0.43093,0.6243 m 0,0 -0.26899,0.7093 m 0,0 -0.0914,0.753 m 0,0 0.0914,0.753 m 0,0 0.26899,0.7093 m 0,0 0.43093,0.6243 m 0,0 0.5678,0.5031 m 0,0 0.67169,0.3525 m 0,0 0.73654,0.1815 m 0,0 h 0.75858 m 0,0 0.73654,-0.1815 m 0,0 0.67169,-0.3525 m 0,0 0.5678,-0.5031 m 0,0 0.43093,-0.6243 m 0,0 0.26899,-0.7093 m 0,0 0.0914,-0.753 m 11.86902,36.155 -0.0448,-0.3687 m 0,0 -0.1317,-0.3473 m 0,0 -0.211,-0.3057 m 0,0 -0.278,-0.2463 m 0,0 -0.3289,-0.1726 m 0,0 -0.3606,-0.0889 m 0,0 h -0.3714 m 0,0 -0.3606,0.0889 m 0,0 -0.3289,0.1726 m 0,0 -0.278,0.2463 m 0,0 -0.211,0.3057 m 0,0 -0.1317,0.3473 m 0,0 -0.0448,0.3687 m 0,0 0.0448,0.3687 m 0,0 0.1317,0.3473 m 0,0 0.211,0.3057 m 0,0 0.278,0.2463 m 0,0 0.3289,0.1726 m 0,0 0.3606,0.0889 m 0,0 h 0.3714 m 0,0 0.3606,-0.0889 m 0,0 0.3289,-0.1726 m 0,0 0.278,-0.2463 m 0,0 0.211,-0.3057 m 0,0 0.1317,-0.3473 m 0,0 0.0448,-0.3687 m 1.2606,0 -0.0814,-0.6704 m 0,0 -0.2395,-0.6314 m 0,0 -0.3836,-0.5558 m 0,0 -0.5055,-0.4478 m 0,0 -0.598,-0.3138 m 0,0 -0.6556,-0.1616 m 0,0 h -0.6754 m 0,0 -0.6556,0.1616 m 0,0 -0.598,0.3138 m 0,0 -0.5055,0.4478 m 0,0 -0.3836,0.5558 m 0,0 -0.2395,0.6314 m 0,0 -0.0814,0.6704 m 0,0 0.0814,0.6704 m 0,0 0.2395,0.6314 m 0,0 0.3836,0.5558 m 0,0 0.5055,0.4478 m 0,0 0.598,0.3138 m 0,0 0.6556,0.1616 m 0,0 h 0.6754 m 0,0 0.6556,-0.1616 m 0,0 0.598,-0.3138 m 0,0 0.5055,-0.4478 m 0,0 0.3836,-0.5558 m 0,0 0.2395,-0.6314 m 0,0 0.0814,-0.6704 m -35.3513,-53.375 h 38.15 m -38.15,0 -0.4673,0.0527 m 0,0 -0.4439,0.1553 m 0,0 -0.3981,0.2502 m 0,0 -0.3325,0.3325 m 0,0 -0.2502,0.3981 m 0,0 -0.1553,0.4439 m 0,0 -0.0527,0.4673 m 40.25,-2.1 0.4673,0.0527 m 0,0 0.4439,0.1553 m 0,0 0.3981,0.2502 m 0,0 0.3325,0.3325 m 0,0 0.2502,0.3981 m 0,0 0.1553,0.4439 m 0,0 0.0527,0.4673 m -42.35,74.2 v -74.2 m 42.35,0 v 74.2 m -42.35,0 0.0527,0.4673 m 0,0 0.1553,0.4439 m 0,0 0.2502,0.3981 m 0,0 0.3325,0.3325 m 0,0 0.3981,0.2502 m 0,0 0.4439,0.1553 m 0,0 0.4673,0.0527 m 40.25,-2.1 -0.0527,0.4673 m 0,0 -0.1553,0.4439 m 0,0 -0.2502,0.3981 m 0,0 -0.3325,0.3325 m 0,0 -0.3981,0.2502 m 0,0 -0.4439,0.1553 m 0,0 -0.4673,0.0527 m 0,0 h -38.15 m 19.91241,-47.95 -0.0243,-0.20041 m 0,0 -0.0716,-0.18875 m 0,0 -0.11468,-0.16615 m 0,0 -0.15111,-0.13387 m 0,0 -0.17875,-0.0938 m 0,0 -0.19601,-0.0483 m 0,0 h -0.20188 m 0,0 -0.19601,0.0483 m 0,0 -0.17875,0.0938 m 0,0 -0.15111,0.13387 m 0,0 -0.11468,0.16615 m 0,0 -0.0716,0.18875 m 0,0 -0.0243,0.20041 m 0,0 0.0243,0.20041 m 0,0 0.0716,0.18875 m 0,0 0.11468,0.16615 m 0,0 0.15111,0.13387 m 0,0 0.17875,0.0938 m 0,0 0.19601,0.0483 m 0,0 h 0.20188 m 0,0 0.19601,-0.0483 m 0,0 0.17875,-0.0938 m 0,0 0.15111,-0.13387 m 0,0 0.11468,-0.16615 m 0,0 0.0716,-0.18875 m 0,0 0.0243,-0.20041 m 4.40927,-13.23 -0.15246,-1.2556 m 0,0 -0.44852,-1.1827 m 0,0 -0.7185,-1.0409 m 0,0 -0.94675,-0.8387 m 0,0 -1.11995,-0.5878 m 0,0 -1.22808,-0.3027 m 0,0 h -1.26484 m 0,0 -1.22808,0.3027 m 0,0 -1.11995,0.5878 m 0,0 -0.94675,0.8387 m 0,0 -0.7185,1.0409 m 0,0 -0.44852,1.1827 m 0,0 -0.15246,1.2556 m 0,0 0.15246,1.2556 m 0,0 0.44852,1.1827 m 0,0 0.7185,1.0409 m 0,0 0.94675,0.8387 m 0,0 1.11995,0.5878 m 0,0 1.22808,0.3027 m 0,0 h 1.26484 m 0,0 1.22808,-0.3027 m 0,0 1.11995,-0.5878 m 0,0 0.94675,-0.8387 m 0,0 0.7185,-1.0409 m 0,0 0.44852,-1.1827 m 0,0 0.15246,-1.2556 m -2.09448,38.43 -0.0916,-0.7544 m 0,0 -0.26947,-0.7105 m 0,0 -0.43168,-0.6254 m 0,0 -0.5688,-0.5039 m 0,0 -0.67286,-0.3532 m 0,0 -0.73783,-0.1818 m 0,0 h -0.75992 m 0,0 -0.73783,0.1818 m 0,0 -0.67286,0.3532 m 0,0 -0.5688,0.5039 m 0,0 -0.43168,0.6254 m 0,0 -0.26947,0.7105 m 0,0 -0.0916,0.7544 m 0,0 0.0916,0.7544 m 0,0 0.26947,0.7105 m 0,0 0.43168,0.6254 m 0,0 0.5688,0.5039 m 0,0 0.67286,0.3532 m 0,0 0.73783,0.1818 m 0,0 h 0.75992 m 0,0 0.73783,-0.1818 m 0,0 0.67286,-0.3532 m 0,0 0.5688,-0.5039 m 0,0 0.43168,-0.6254 m 0,0 0.26947,-0.7105 m 0,0 0.0916,-0.7544"
       style="font-style:normal;font-weight:400;font-size:29.1042px;font-family:'MS Shell Dlg 2';fill:none;fill-rule:evenodd;stroke:#000000;stroke-width:0.7;stroke-linecap:round;stroke-linejoin:bevel;stroke-opacity:1" />
    <path
       id="path4"
       style="vector-effect:non-scaling-stroke;fill:#000000;stroke-width:0.264583;stroke-linecap:square;-inkscape-stroke:hairline"
       d="m 157.52579,136.07386 a 2.9000001,2.9000001 0 0 0 -2.90009,2.90009 2.9000001,2.9000001 0 0 0 2.90009,2.90008 2.9000001,2.9000001 0 0 0 2.89956,-2.90008 2.9000001,2.9000001 0 0 0 -2.89956,-2.90009 z m -0.11421,1.32706 h 0.52503 v 3.02203 h -0.63872 v -1.74873 c 0,-0.0482 6.9e-4,-0.10748 0.002,-0.17776 0.001,-0.0717 0.003,-0.1447 0.006,-0.21911 0.003,-0.0758 0.006,-0.14401 0.008,-0.20464 -0.0152,0.0179 -0.0462,0.0489 -0.093,0.093 -0.0455,0.0427 -0.0882,0.0813 -0.12816,0.11575 l -0.34726,0.27905 -0.30799,-0.38447 z m 1.36116,37.2494 a 2.9000001,2.9000001 0 0 0 -2.90008,2.90008 2.9000001,2.9000001 0 0 0 2.90008,2.90008 2.9000001,2.9000001 0 0 0 2.90008,-2.90008 2.9000001,2.9000001 0 0 0 -2.90008,-2.90008 z m -0.0413,1.25109 h 0.58911 v 1.89962 h 0.3638 v 0.4961 h -0.3638 v 0.62632 h -0.62425 v -0.62632 h -1.28985 v -0.44442 z m -0.0248,0.73174 c -0.0262,0.0565 -0.0537,0.11162 -0.0827,0.16536 -0.0289,0.0524 -0.0627,0.10749 -0.10129,0.16537 l -0.55397,0.83715 h 0.72761 v -0.51263 c 0,-0.0482 6.9e-4,-0.10542 0.002,-0.17156 l 0.008,-0.19844 c 0.003,-0.0661 0.006,-0.12471 0.008,-0.1757 0.004,-0.0524 0.007,-0.0889 0.008,-0.10955 z m 14.77998,-4.70514 a 2.9000001,2.9000001 0 0 0 -2.90008,2.90008 2.9000001,2.9000001 0 0 0 2.90008,2.90008 2.9000001,2.9000001 0 0 0 2.90008,-2.90008 2.9000001,2.9000001 0 0 0 -2.90008,-2.90008 z m 0.0517,1.25418 c 0.19844,0 0.36863,0.0358 0.51057,0.10749 0.14331,0.0717 0.25356,0.1695 0.33073,0.29352 0.0772,0.12265 0.11575,0.26183 0.11575,0.41755 0,0.16674 -0.0331,0.31901 -0.0992,0.45682 -0.0661,0.1378 -0.16261,0.27423 -0.28938,0.40928 -0.12541,0.13504 -0.27699,0.28456 -0.45476,0.44855 l -0.3886,0.36587 v 0.0289 h 1.31671 v 0.53743 h -2.11253 v -0.44442 l 0.75861,-0.76688 c 0.15296,-0.15709 0.27561,-0.28801 0.36794,-0.39274 0.0937,-0.10611 0.16123,-0.20257 0.20257,-0.28938 0.0427,-0.0868 0.0641,-0.17984 0.0641,-0.27906 0,-0.11989 -0.0338,-0.20946 -0.10129,-0.26871 -0.0661,-0.0606 -0.15503,-0.091 -0.26665,-0.091 -0.11713,0 -0.23082,0.0269 -0.34107,0.0806 -0.11024,0.0537 -0.2253,0.13022 -0.34519,0.22944 l -0.34727,-0.41134 c 0.0868,-0.0744 0.17846,-0.1447 0.27492,-0.21084 0.0978,-0.0661 0.21084,-0.1192 0.339,-0.15916 0.12953,-0.0414 0.28456,-0.062 0.46508,-0.062 z m -12.09073,-23.58925 a 2.9000001,2.9000001 0 0 0 -2.90008,2.90008 2.9000001,2.9000001 0 0 0 2.90008,2.90008 2.9000001,2.9000001 0 0 0 2.90008,-2.90008 2.9000001,2.9000001 0 0 0 -2.90008,-2.90008 z m 0.0424,1.36219 c 0.31144,0 0.55811,0.0627 0.74001,0.1881 0.1819,0.1254 0.27285,0.30248 0.27285,0.53123 0,0.13918 -0.0289,0.25976 -0.0868,0.36174 -0.0579,0.10197 -0.13643,0.18534 -0.23565,0.25011 -0.0978,0.0648 -0.20808,0.11231 -0.33073,0.14263 v 0.0124 c 0.24254,0.0303 0.42651,0.10473 0.55191,0.22324 0.12678,0.11851 0.19017,0.27699 0.19017,0.47543 0,0.17639 -0.0434,0.33417 -0.13023,0.47335 -0.0854,0.13918 -0.21773,0.24874 -0.39687,0.32866 -0.17915,0.0799 -0.40997,0.11989 -0.69247,0.11989 -0.16674,0 -0.32246,-0.0138 -0.46715,-0.0413 -0.14332,-0.0262 -0.27837,-0.0668 -0.40515,-0.12195 v -0.54364 c 0.12954,0.0661 0.26528,0.11644 0.40721,0.1509 0.14194,0.0331 0.27423,0.0496 0.39688,0.0496 0.22875,0 0.38861,-0.0393 0.47956,-0.11783 0.0923,-0.0799 0.13849,-0.19154 0.13849,-0.33486 0,-0.0841 -0.0214,-0.15503 -0.0641,-0.21291 -0.0427,-0.0579 -0.11713,-0.10197 -0.22324,-0.13229 -0.10473,-0.0303 -0.25149,-0.0455 -0.44028,-0.0455 h -0.22945 v -0.4899 h 0.23358 c 0.18603,0 0.32728,-0.0172 0.42375,-0.0517 0.0978,-0.0358 0.16398,-0.0841 0.19843,-0.1447 0.0358,-0.062 0.0538,-0.13229 0.0538,-0.21084 0,-0.10748 -0.0331,-0.19154 -0.0992,-0.25218 -0.0661,-0.0606 -0.17639,-0.0909 -0.33073,-0.0909 -0.0965,0 -0.18466,0.0124 -0.26458,0.0372 -0.0786,0.0234 -0.14952,0.0524 -0.21291,0.0868 -0.0634,0.0331 -0.1192,0.0655 -0.16743,0.0972 l -0.29559,-0.44029 c 0.11851,-0.0854 0.257,-0.1564 0.41548,-0.2129 0.15985,-0.0565 0.35002,-0.0848 0.5705,-0.0848 z" />
  </g>
  <metadata
     id="metadata1">
    <rdf:RDF>
      <cc:Work
         rdf:about="">
        <dc:title>FreeCAD SVG Export</dc:title>
      </cc:Work>
    </rdf:RDF>
  </metadata>
</svg>
